<svg xmlns="http://www.w3.org/2000/svg" width="18" height="16" viewBox="0 0 18 16">
    <path fill="#454C59" fill-rule="evenodd" d="M.454 5.13h3.508V16H.454V5.13zm13.094-.104C16.04 5.026 18 6.59 18 9.956V16h-3.978v-5.625c0-1.472-.622-2.477-1.99-2.477-1.048 0-1.63.678-1.9 1.332-.102.235-.086.562-.086.888V16H6.105s.05-9.963 0-10.87h3.94v1.707c.233-.746 1.493-1.81 3.503-1.81zM2.143 0c1.295 0 2.09.812 2.116 1.884 0 1.054-.821 1.887-2.14 1.887h-.026C.823 3.771 0 2.941 0 1.887 0 .813.848 0 2.143 0z"/>
</svg>
