<?xml version="1.0" encoding="UTF-8"?>
<svg width="798px" height="121px" viewBox="0 0 798 121" version="1.1" xmlns="http://www.w3.org/2000/svg" xmlns:xlink="http://www.w3.org/1999/xlink">
    <!-- Generator: Sketch 47.1 (45422) - http://www.bohemiancoding.com/sketch -->
    <title>Logo_LSDRONES Copy</title>
    <desc>Created with Sketch.</desc>
    <defs></defs>
    <g id="Page-1" stroke="none" stroke-width="1" fill="none" fill-rule="evenodd">
        <g id="Logo_LSDRONES-Copy">
            <path d="M174.630983,1.85263158 L193.965061,1.85263158 C222.057313,1.85263158 261.551713,8.35536842 261.551713,60.2105263 C261.551713,110.064842 222.718307,118.568421 193.965061,118.568421 L174.630983,118.568421 L174.630983,1.85263158 Z M193.965061,99.5604211 C193.965061,99.5604211 242.052386,106.229895 242.052386,60.2105263 C242.052386,13.5242105 193.965061,20.8606316 193.965061,20.8606316 L193.965061,99.5604211 Z M341.03626,118.568421 L318.892956,69.8812632 L303.194345,69.8812632 L303.194345,118.568421 L283.860266,118.568421 L283.860266,1.85263158 L322.363175,1.85263158 C322.363175,1.85263158 361.031333,1.85263158 361.031333,35.8669474 C361.031333,54.7082105 349.133438,63.0450526 338.722781,66.88 L362.353321,118.568421 L341.03626,118.568421 Z M303.194345,21.3608421 L303.194345,50.5397895 L322.363175,50.5397895 C322.363175,50.5397895 341.697254,50.5397895 341.697254,35.8669474 C341.697254,21.3608421 322.363175,21.3608421 322.363175,21.3608421 L303.194345,21.3608421 Z M605.140145,0.185263158 L585.971315,0.185263158 L585.971315,83.2202105 L528.299575,0.185263158 L508.800248,0.185263158 L508.800248,116.901053 L528.134327,116.901053 L528.134327,33.8661053 L585.640818,116.901053 L605.140145,116.901053 L605.140145,0.185263158 Z M710.825766,19.6934737 L710.825766,0.185263158 L633.654699,0.185263158 L633.654699,116.901053 L710.825766,116.901053 L710.825766,97.3928421 L652.988778,97.3928421 L652.988778,68.2138947 L701.076102,68.2138947 L701.076102,48.8724211 L652.988778,48.8724211 L652.988778,19.6934737 L710.825766,19.6934737 Z M761.648872,120.235789 C780.321956,120.235789 797.673053,108.064 797.673053,85.7212632 C797.673053,71.8821053 791.063111,60.2105263 778.83472,54.5414737 C770.572293,50.7065263 762.475114,50.7065263 761.648872,50.7065263 C753.055948,50.7065263 744.793521,45.5376842 744.793521,35.8669474 C744.793521,25.0290526 752.560202,19.6934737 761.648872,19.6934737 C770.407044,19.6934737 777.843228,24.0286316 778.173725,33.6993684 L797.342556,33.6993684 C797.012059,13.8576842 781.643945,0.185263158 761.648872,0.185263158 C742.975787,0.185263158 725.459442,13.6909474 725.459442,35.8669474 C725.459442,49.7061053 732.234632,60.0437895 744.297775,65.7128421 C752.725451,69.5477895 760.65738,69.5477895 761.648872,69.5477895 C769.415553,69.8812632 778.504223,75.8837895 778.504223,85.7212632 C778.504223,94.8917895 770.572293,100.727579 761.648872,100.727579 C753.055948,100.727579 745.124018,95.8922105 744.793521,86.2214737 L725.459442,86.2214737 C725.789939,108.064 741.653799,119.735579 761.648872,120.235789 Z" id="dr-neS" fill="#FFFFFF" fill-rule="nonzero"></path>
            <g id="LS" fill="#318CE7">
                <path d="M22.6941325,96.8926316 L22.6941325,3.18652632 C22.6941325,2.51957895 22.0331384,1.85263158 21.2068957,1.85263158 L2.20331384,1.85263158 C1.21182261,1.85263158 0.550828459,2.51957895 0.550828459,3.18652632 L0.550828459,117.234526 C0.550828459,117.901474 1.21182261,118.568421 2.20331384,118.568421 L63.0147757,118.568421 C64.006267,118.568421 64.6672611,117.901474 64.6672611,117.234526 L64.6672611,98.2265263 C64.6672611,97.5595789 64.006267,96.8926316 63.0147757,96.8926316 L22.6941325,96.8926316 Z M116.390053,120.235789 C135.393635,120.235789 153.240477,107.730526 153.240477,85.2210526 C153.240477,71.2151579 146.465287,59.3768421 133.906398,53.5410526 C125.478723,49.5393684 117.216296,49.5393684 116.390053,49.5393684 C108.788621,49.5393684 101.517685,45.0374737 101.517685,36.3671579 C101.517685,26.6964211 108.292875,21.8610526 116.390053,21.8610526 C124.156735,21.8610526 130.601428,25.8627368 130.931925,34.3663158 C130.931925,34.8665263 131.758167,35.5334737 132.58441,35.5334737 L151.257495,35.5334737 C152.248986,35.5334737 152.90998,34.8665263 152.90998,34.3663158 C152.579483,14.0244211 136.715624,0.185263158 116.390053,0.185263158 C97.3864716,0.185263158 79.374381,13.8576842 79.374381,36.3671579 C79.374381,50.3730526 86.3148196,60.8774737 98.7084599,66.7132632 C107.301384,70.7149474 115.398562,70.7149474 116.390053,70.7149474 C123.165244,71.0484211 131.262422,76.384 131.262422,85.2210526 C131.262422,93.2244211 124.321983,98.56 116.390053,98.56 C108.788621,98.56 101.848182,94.2248421 101.517685,85.7212632 C101.517685,85.0543158 100.691442,84.3873684 99.8651997,84.3873684 L81.0268664,84.3873684 C80.0353751,84.3873684 79.374381,85.0543158 79.374381,85.7212632 C79.7048781,107.730526 95.8992348,119.735579 116.390053,120.235789 Z"></path>
            </g>
            <g id="Group-7" transform="translate(378.235542, 0.000000)" fill-rule="nonzero">
                <path d="M58.7568718,109.710526 C52.9309428,109.710526 47.3834116,108.059832 42.562056,104.912905 C38.147625,107.794905 33.1222333,109.418042 27.8322145,109.671389 C36.8198989,115.307326 47.4164613,118.568421 58.7550357,118.568421 C70.09361,118.568421 80.6901725,115.307326 89.6778568,109.671158 C84.3887561,109.418042 79.3642825,107.796295 74.9484743,104.915221 C70.1275777,108.060758 64.5816532,109.710526 58.7568718,109.710526 Z" id="Shape" fill="#318CE7"></path>
                <path d="M91.1400769,92.928 C85.3152954,92.928 79.7696004,91.2784632 74.9484743,88.1326947 C70.1278073,91.2782316 64.5816532,92.928 58.7568718,92.928 C52.9304837,92.928 47.3834116,91.2773053 42.562056,88.1306105 C37.742307,91.2773053 32.1959234,92.928 26.3699944,92.928 C20.5436064,92.928 14.9963048,91.2773053 10.1749492,88.1306105 C9.50844677,88.5655158 8.82679655,88.9691579 8.13367074,89.3466316 C10.4375108,93.2811579 13.1755872,96.9266737 16.286391,100.211621 C19.3946701,101.761116 22.8134787,102.567705 26.3695354,102.567705 C31.5021091,102.567705 36.3489405,100.890611 40.3858246,97.7175158 C41.6646647,96.7124632 43.4562342,96.7122316 44.7355333,97.7170526 C48.7747125,100.890611 53.6231505,102.567937 58.7564127,102.567937 C63.8882979,102.567937 68.7355883,100.891537 72.774079,97.7198316 C74.05246,96.7154737 75.8435706,96.7154737 77.1219516,97.7198316 C81.1604423,100.891537 86.0077327,102.567937 91.1396179,102.567937 C94.6970517,102.567937 98.1165488,101.760884 101.225057,100.209768 C104.334714,96.9255158 107.072331,93.2809263 109.375483,89.3477895 C108.682127,88.9696211 107.999788,88.5657474 107.332597,88.1303789 C102.512619,91.2773053 96.9662354,92.928 91.1400769,92.928 Z" id="Shape" fill="#318CE7"></path>
                <path d="M91.1400769,76.1454737 C85.3152954,76.1454737 79.7696004,74.4959368 74.9484743,71.3501684 C70.1278073,74.4957053 64.5816532,76.1454737 58.7568718,76.1454737 C52.9304837,76.1454737 47.3834116,74.4947789 42.562056,71.3480842 C37.742307,74.4947789 32.1959234,76.1454737 26.3699944,76.1454737 C20.5436064,76.1454737 14.9963048,74.4947789 10.1749492,71.3480842 C7.66225338,72.9888211 4.95034127,74.2182737 2.10600081,75.0237053 C2.85420947,77.7621263 3.79291297,80.4211158 4.90604548,82.9863158 C5.97993146,82.3927789 7.01411189,81.7091579 7.99917679,80.9349895 C9.27801686,79.9299368 11.070275,79.9297053 12.3488855,80.9345263 C16.3878352,84.1076211 21.2360437,85.7851789 26.3697649,85.7851789 C31.5027976,85.7851789 36.34917,84.1080842 40.3860541,80.9349895 C41.6648942,79.9299368 43.4564637,79.9297053 44.7357628,80.9345263 C48.774942,84.1076211 53.62338,85.7851789 58.7566422,85.7851789 C63.8887569,85.7851789 68.7358178,84.1087789 72.7743085,80.9370737 C74.0526895,79.9327158 75.8438001,79.9327158 77.1221811,80.9370737 C81.1606718,84.1087789 86.0077327,85.7851789 91.1398474,85.7851789 C96.2728801,85.7851789 101.119711,84.1080842 105.156366,80.9349895 C106.435206,79.9299368 108.227235,79.9297053 109.506075,80.9345263 C110.492517,81.7096211 111.527845,82.3937053 112.603108,82.9877053 C113.716699,80.4220421 114.655632,77.7628211 115.403841,75.0239368 C112.558812,74.2185053 109.846211,72.9885895 107.332368,71.3480842 C102.512619,74.4947789 96.9662354,76.1454737 91.1400769,76.1454737 Z" id="Shape" fill="#318CE7"></path>
                <path d="M58.7550357,0 C26.3573713,0 0,26.5947579 0,59.2842105 C0,62.2498105 0.21987236,65.1644632 0.638501989,68.0142737 C3.2806425,67.2053684 5.76464934,65.9092211 7.9994063,64.1529263 C9.27778735,63.1471789 11.070275,63.1476421 12.349115,64.1522316 C16.3880647,67.3253263 21.2362732,69.0028842 26.3699944,69.0028842 C31.5030271,69.0028842 36.3493995,67.3257895 40.3862836,64.1526947 C41.6651237,63.1474105 43.4566933,63.1474105 44.7359923,64.1522316 C48.7751715,67.3253263 53.6236095,69.0028842 58.7568718,69.0028842 C63.8889864,69.0028842 68.7360473,67.3264842 72.774538,64.1547789 C74.052919,63.1504211 75.8440296,63.1504211 77.1224106,64.1547789 C81.1609013,67.3264842 86.0079622,69.0028842 91.1400769,69.0028842 C96.2731096,69.0028842 101.119941,67.3257895 105.156596,64.1526947 C106.435436,63.1474105 108.227464,63.1474105 109.506304,64.1522316 C111.742897,65.9092211 114.228052,67.2053684 116.871569,68.0142737 C117.290199,65.1644632 117.510071,62.2498105 117.510071,59.2842105 C117.510071,26.5947579 91.1527,0 58.7550357,0 Z" id="Shape" fill="#318CE7"></path>
                <g id="Group-4" transform="translate(32.315270, 32.606316)" fill="#FFFFFF">
                    <polygon id="Combined-Shape" points="38.1205282 1.15029065 51.4779131 1.15029065 52.0040777 1.15029065 52.0040777 0.0884838963 51.4779131 0.0884838963 0.787760406 0.0884838963 0.261595909 0.0884838963 0.261595909 1.15029065 0.787760406 1.15029065 13.7380819 1.15029065 25.929305 11.4528574"></polygon>
                </g>
            </g>
        </g>
    </g>
</svg>