<?xml version="1.0" standalone="no"?>
<!DOCTYPE svg PUBLIC "-//W3C//DTD SVG 20010904//EN"
 "http://www.w3.org/TR/2001/REC-SVG-20010904/DTD/svg10.dtd">
<svg version="1.0" xmlns="http://www.w3.org/2000/svg"
 width="511.000000pt" height="511.000000pt" viewBox="0 0 511.000000 511.000000"
 preserveAspectRatio="xMidYMid meet">
<metadata>
Created by potrace 1.11, written by Peter Selinger 2001-2013
</metadata>
<g transform="translate(0.000000,511.000000) scale(0.100000,-0.100000)"
fill="#000000" stroke="none">
<path d="M2315 5099 c-606 -62 -1142 -315 -1565 -739 -134 -133 -220 -238
-328 -400 -311 -465 -462 -1059 -412 -1615 12 -133 17 -155 33 -155 28 0 172
72 253 126 72 47 97 58 139 62 47 4 55 1 118 -42 137 -94 235 -138 383 -172
118 -28 320 -25 439 5 107 27 240 88 350 160 74 49 83 53 130 49 40 -3 65 -15
125 -55 87 -59 162 -98 240 -125 302 -104 613 -63 883 115 75 49 102 61 142
65 46 4 56 0 117 -41 215 -144 366 -192 598 -191 212 0 357 45 555 172 94 60
103 63 150 60 41 -3 66 -14 129 -57 79 -54 199 -115 247 -126 33 -8 34 -4 50
175 42 496 -88 1050 -350 1488 -401 671 -1065 1113 -1843 1227 -126 19 -461
27 -583 14z m1345 -1419 c0 -20 -7 -20 -301 -20 l-300 0 -257 -216 c-141 -119
-262 -218 -269 -221 -6 -2 -130 95 -274 216 l-264 221 -292 0 c-286 0 -293 0
-293 20 0 20 7 20 1125 20 1118 0 1125 0 1125 -20z"/>
<path d="M361 1994 c-41 -24 -109 -55 -150 -70 -42 -15 -86 -31 -98 -35 l-21
-8 20 -68 c11 -37 38 -114 60 -171 l40 -103 36 23 c21 12 59 37 86 55 88 60
134 57 240 -15 191 -132 398 -192 625 -179 184 10 348 66 505 172 62 41 98 59
130 62 49 6 58 2 171 -72 93 -61 195 -106 309 -137 118 -32 344 -32 470 0 106
26 245 90 341 156 37 25 79 49 92 52 45 12 93 -5 176 -59 105 -70 163 -99 262
-130 292 -92 601 -46 858 127 84 56 134 74 179 63 13 -4 61 -31 108 -62 l85
-57 18 44 c10 24 38 101 62 171 l44 128 -22 8 c-12 4 -56 20 -98 35 -42 15
-111 47 -153 71 l-76 43 -103 -53 c-200 -105 -372 -146 -607 -147 -228 0 -401
43 -606 151 l-94 50 -68 -40 c-368 -216 -896 -215 -1265 0 l-68 40 -102 -54
c-198 -104 -371 -146 -607 -147 -228 0 -401 43 -607 151 -53 28 -96 51 -97 50
-1 -1 -34 -21 -75 -45z"/>
<path d="M401 1293 c-23 -13 -41 -28 -41 -32 0 -13 144 -226 192 -285 133
-161 154 -180 230 -210 130 -51 244 -69 398 -63 206 8 354 57 534 175 81 53
127 69 168 57 12 -4 59 -31 104 -61 99 -66 182 -105 299 -140 83 -25 104 -28
260 -28 143 0 182 3 247 21 117 33 218 78 309 140 45 30 95 60 111 65 44 16
92 1 166 -49 91 -63 230 -128 327 -155 67 -18 107 -21 250 -22 145 0 182 3
249 22 113 31 186 67 224 110 117 132 312 397 312 423 0 5 -18 19 -41 32 l-41
25 -66 -39 c-95 -56 -250 -114 -372 -140 -149 -32 -381 -32 -530 0 -122 26
-277 84 -371 139 l-66 39 -79 -44 c-108 -59 -219 -100 -349 -131 -94 -22 -134
-25 -275 -26 -143 0 -180 4 -275 26 -131 31 -241 72 -349 131 l-79 44 -79 -45
c-94 -53 -265 -115 -378 -136 -305 -58 -638 -3 -891 148 l-57 34 -41 -25z"/>
<path d="M1745 539 c-111 -60 -278 -114 -410 -134 -55 -8 -104 -15 -110 -15
-20 -1 93 -65 230 -131 506 -244 1084 -310 1653 -188 130 28 369 108 489 164
104 49 285 146 280 151 -1 2 -52 10 -112 19 -137 20 -289 70 -417 137 l-99 52
-37 -23 c-179 -108 -388 -169 -617 -178 -225 -9 -422 34 -630 138 -66 32 -122
59 -125 58 -3 0 -45 -23 -95 -50z"/>
</g>
</svg>
